<?xml version="1.0" standalone="no"?>
<!DOCTYPE svg PUBLIC "-//W3C//DTD SVG 20010904//EN"
 "http://www.w3.org/TR/2001/REC-SVG-20010904/DTD/svg10.dtd">
<svg version="1.0" xmlns="http://www.w3.org/2000/svg"
 width="500.000000pt" height="500.000000pt" viewBox="0 0 500.000000 500.000000"
 preserveAspectRatio="xMidYMid meet">

<g transform="translate(0.000000,500.000000) scale(0.100000,-0.100000)"
fill="#000000" stroke="none">
<path d="M2419 3550 c-131 -17 -274 -122 -333 -243 -59 -121 -57 -301 5 -418
40 -74 137 -167 215 -205 50 -25 74 -29 160 -32 75 -3 117 0 160 13 116 34
231 135 287 253 30 64 32 73 31 182 0 138 -19 195 -91 285 -108 132 -257 189
-434 165z m233 -92 c75 -35 147 -104 189 -181 33 -60 34 -66 34 -172 0 -98 -3
-116 -27 -167 -55 -118 -175 -204 -303 -219 -178 -19 -322 57 -398 210 -30 62
-32 72 -32 176 0 95 3 116 23 157 48 97 144 181 245 214 68 22 200 13 269 -18z"/>
<path d="M2411 3450 c-92 -20 -182 -90 -232 -182 -32 -60 -34 -68 -34 -163 0
-88 3 -106 27 -155 51 -105 149 -179 264 -199 152 -28 311 55 382 199 24 48
27 67 27 150 0 88 -3 101 -33 162 -56 114 -160 184 -287 192 -38 3 -90 1 -114
-4z m232 -44 c66 -32 130 -98 164 -172 32 -72 34 -174 3 -256 -28 -75 -98
-149 -175 -185 -84 -38 -194 -39 -277 -1 -67 31 -137 99 -170 165 -33 69 -37
188 -8 265 37 99 130 182 234 209 58 15 169 3 229 -25z"/>
<path d="M2473 3294 c-15 -31 -21 -35 -46 -30 l-28 6 7 -45 c7 -48 1 -54 -28
-28 -17 15 -18 15 -18 -2 0 -14 -7 -16 -40 -13 -22 2 -40 1 -40 -2 0 -3 4 -20
10 -39 8 -28 6 -36 -7 -46 -14 -10 -8 -18 41 -56 43 -34 55 -49 52 -66 -3 -22
0 -23 55 -23 l59 0 0 -45 c0 -25 5 -45 10 -45 6 0 10 20 10 45 l0 45 56 0 c52
0 56 2 51 20 -4 16 8 31 54 68 51 41 57 49 43 59 -12 9 -14 21 -9 51 l6 39
-32 -5 c-23 -3 -34 0 -41 13 -9 15 -12 15 -35 -7 l-25 -23 7 53 7 53 -26 -7
c-22 -5 -28 -1 -43 30 -9 20 -20 36 -25 36 -5 0 -16 -16 -25 -36z m45 -39 c6
-14 19 -25 28 -25 14 0 15 -9 9 -62 l-7 -63 36 34 c20 19 36 29 36 22 0 -10 9
-12 29 -8 28 6 28 5 27 -38 -2 -40 -7 -49 -44 -77 -23 -18 -42 -40 -42 -50 0
-14 -8 -18 -40 -18 -55 0 -52 18 11 70 35 30 47 46 40 53 -8 8 -23 -1 -51 -28
l-40 -39 0 72 c0 57 -3 72 -15 72 -12 0 -15 -14 -15 -66 l0 -66 -35 31 c-20
17 -40 31 -45 31 -20 0 -8 -20 35 -58 58 -51 59 -72 4 -72 -31 0 -40 3 -36 14
4 9 -14 31 -45 56 -31 27 -46 45 -39 50 9 5 9 14 1 34 -14 37 -14 36 20 30 21
-5 30 -3 30 7 0 7 15 -1 33 -19 18 -18 35 -32 38 -32 3 0 2 21 -2 48 -12 73
-11 81 9 75 12 -3 22 4 30 21 15 33 26 33 40 1z"/>
<path d="M3861 2599 c-14 -5 -48 -32 -77 -59 -28 -27 -65 -52 -80 -55 -59 -13
-84 -28 -135 -82 -29 -30 -73 -64 -97 -74 -24 -11 -57 -28 -72 -39 -37 -26
-44 -25 -131 10 -48 20 -83 42 -101 65 -31 37 -86 60 -123 51 -14 -4 -52 5
-96 21 -79 29 -69 30 -186 -18 -29 -12 -33 -11 -67 19 -29 25 -46 32 -78 32
-37 0 -47 -6 -105 -64 -46 -47 -78 -69 -113 -81 -76 -25 -94 -19 -101 36 -12
84 -54 129 -120 129 -58 0 -109 -51 -160 -159 -23 -47 -46 -89 -51 -92 -18
-12 -232 0 -279 14 -26 8 -64 28 -85 45 -55 42 -193 112 -223 112 -14 0 -45 9
-67 19 -95 43 -150 36 -208 -29 -52 -58 -63 -105 -42 -179 16 -59 16 -63 -5
-141 -19 -69 -21 -85 -10 -120 9 -31 20 -45 47 -57 32 -16 36 -16 87 5 90 37
127 28 181 -48 72 -100 155 -103 223 -8 l37 51 74 -7 c41 -3 102 -11 136 -17
57 -11 68 -10 138 15 136 47 217 37 438 -49 29 -12 56 -16 73 -11 39 9 102 69
144 137 20 33 39 59 42 59 4 0 14 -23 24 -51 21 -57 61 -89 114 -89 25 0 46
-12 87 -49 30 -27 68 -52 85 -56 45 -10 101 21 128 69 40 73 119 95 182 51 49
-34 206 -78 249 -70 18 3 50 21 71 40 57 52 84 59 149 40 74 -22 112 -14 156
35 41 46 51 88 42 173 -4 34 -10 85 -13 112 -4 41 0 63 22 115 50 119 44 215
-16 245 -32 17 -54 18 -88 4z m73 -101 c0 -65 -60 -183 -133 -261 -49 -52 -92
-129 -79 -142 1 -2 27 25 56 61 81 100 125 84 79 -29 -27 -67 -39 -117 -27
-117 5 0 31 25 59 56 64 70 66 54 4 -37 -53 -76 -80 -88 -109 -44 -19 29 -13
68 23 138 13 27 23 51 21 53 -5 5 -65 -68 -107 -128 -35 -53 -48 -58 -59 -27
-7 18 -15 11 -63 -53 -54 -72 -79 -88 -109 -69 -15 10 -17 72 -4 113 4 13 -14
0 -49 -35 -30 -31 -60 -57 -66 -57 -6 0 -18 11 -27 25 -16 24 -15 29 5 84 11
32 21 62 21 66 0 16 -94 -3 -107 -21 -32 -44 -76 -84 -99 -90 -31 -8 -72 18
-80 51 -8 34 31 112 65 130 15 7 32 25 39 39 35 79 126 30 102 -55 -5 -18 -8
-34 -6 -36 9 -10 33 11 43 37 8 21 18 30 33 30 17 0 21 -4 15 -17 -12 -32 -10
-37 15 -41 41 -6 43 -17 16 -85 -30 -76 -31 -81 -12 -70 45 25 166 227 166
276 0 5 -17 8 -37 6 -21 -1 -49 -1 -63 0 -44 4 8 19 68 20 35 1 52 5 52 14 0
7 16 38 36 70 30 48 40 57 65 57 16 0 29 -3 29 -7 0 -5 -16 -33 -35 -63 -19
-30 -35 -58 -35 -62 0 -4 16 -8 35 -8 35 0 36 2 81 93 57 118 116 189 153 185
24 -3 26 -7 25 -50z m-1710 -124 c-1 -38 -41 -110 -114 -204 -27 -34 -57 -116
-39 -105 5 4 9 12 9 19 0 18 107 134 131 141 24 8 49 -10 49 -35 0 -22 -54
-71 -98 -89 -36 -15 -41 -38 -14 -70 l17 -22 41 31 c23 16 60 59 82 95 43 68
73 86 111 65 42 -22 26 -52 -68 -132 -24 -21 -30 -88 -8 -88 32 0 128 124 162
210 l24 62 -42 -2 c-23 -2 -53 -2 -67 -1 -23 2 -24 3 -5 11 11 5 43 9 70 9
l50 1 38 70 c33 63 41 70 67 70 35 0 37 -11 11 -48 -10 -15 -26 -42 -35 -61
l-18 -33 41 4 c25 2 40 0 38 -7 -2 -5 -23 -11 -46 -13 -40 -3 -43 -6 -62 -50
-36 -82 -79 -219 -79 -248 l1 -29 39 45 c22 25 56 69 77 98 36 51 54 64 52 40
0 -17 -139 -198 -161 -212 -13 -8 -23 -8 -35 0 -20 12 -25 83 -10 139 l7 30
-21 -25 c-78 -94 -95 -103 -138 -74 -18 13 -22 24 -19 50 2 19 3 34 1 34 -2 0
-24 -16 -49 -36 -55 -41 -80 -41 -110 3 l-21 32 -17 -35 c-12 -27 -22 -35 -39
-32 -16 2 -22 10 -22 29 1 24 -4 21 -56 -34 -50 -53 -59 -58 -78 -48 -28 15
-28 68 -1 121 25 48 25 50 1 50 -13 0 -29 -18 -49 -52 -36 -65 -75 -103 -97
-95 -22 9 -37 55 -29 91 7 34 3 31 -40 -26 -28 -39 -53 -47 -74 -26 -34 34 18
175 72 193 24 8 31 6 47 -14 16 -20 22 -21 35 -11 12 11 18 11 30 -1 13 -13
13 -20 0 -50 -19 -46 -30 -119 -18 -119 16 0 94 120 88 136 -9 23 12 54 35 54
18 0 20 -4 14 -30 -6 -28 -5 -30 24 -30 38 0 39 -11 6 -92 -29 -72 -29 -69
-10 -62 8 3 37 37 65 74 37 50 56 89 71 142 28 101 92 232 121 245 37 17 63
-6 62 -53z m-955 -8 c13 -27 12 -38 -12 -110 -20 -63 -22 -76 -9 -59 9 11 39
48 65 82 51 64 79 80 102 61 23 -19 18 -55 -16 -121 -33 -66 -51 -109 -45
-109 2 0 18 22 36 49 38 60 103 121 128 121 26 0 42 -20 42 -52 0 -15 -22 -82
-50 -148 -60 -147 -69 -185 -45 -194 10 -3 34 -4 54 0 l36 6 -20 -20 c-31 -31
-58 -35 -88 -12 -53 42 -44 132 29 288 42 92 44 115 8 81 -39 -36 -107 -127
-144 -192 -26 -47 -35 -55 -46 -46 -28 23 -16 83 41 197 30 61 55 116 55 123
0 45 -175 -193 -225 -305 -19 -42 -30 -56 -43 -54 -29 6 -17 66 41 204 70 165
80 195 68 207 -13 13 -66 -44 -83 -89 -13 -36 -25 -43 -34 -19 -9 23 3 60 33
95 48 57 99 64 122 16z m1645 18 c23 -22 20 -69 -9 -154 -14 -40 -24 -75 -22
-76 1 -1 31 36 66 83 54 73 108 123 133 123 4 0 14 -7 23 -17 27 -26 14 -74
-64 -246 -46 -100 -71 -168 -69 -185 3 -25 6 -27 48 -25 l45 2 -28 -25 c-36
-31 -52 -30 -82 2 -53 57 -43 111 64 338 72 152 58 155 -54 11 -71 -91 -132
-185 -152 -233 -16 -38 -46 -41 -51 -5 -2 12 26 96 62 186 63 158 77 207 57
207 -15 0 -59 -57 -72 -95 -14 -38 -32 -41 -37 -7 -5 32 37 99 72 116 39 20
51 20 70 0z m-196 -236 c2 -17 -6 -41 -21 -64 -24 -34 -26 -35 -36 -16 -15 28
-14 85 1 100 21 21 53 10 56 -20z"/>
<path d="M3880 2478 c-11 -18 -20 -37 -20 -41 0 -5 -4 -5 -10 -2 -6 4 -7 -1
-3 -11 4 -12 3 -15 -5 -10 -8 5 -10 2 -6 -8 4 -9 -1 -18 -10 -22 -9 -3 -13
-10 -10 -15 3 -5 0 -9 -6 -9 -6 0 -8 -4 -5 -10 3 -5 1 -10 -5 -10 -6 0 -8 -4
-5 -10 3 -5 2 -10 -4 -10 -6 0 -7 -7 -4 -17 4 -9 2 -14 -3 -11 -5 3 -9 -7 -10
-23 -1 -28 -1 -28 32 14 33 42 97 161 109 205 9 33 -12 27 -35 -10z"/>
<path d="M3588 2158 c-40 -103 -70 -207 -62 -220 5 -8 56 47 110 117 20 27 63
151 64 188 0 4 -17 7 -38 7 l-38 0 -36 -92z"/>
<path d="M3215 2190 c-22 -42 -20 -80 4 -80 25 0 30 8 37 64 6 38 4 46 -9 46
-9 0 -23 -13 -32 -30z"/>
<path d="M3147 2085 c-37 -78 -4 -103 53 -39 l31 36 -31 19 c-17 11 -32 19
-33 19 -2 0 -11 -16 -20 -35z"/>
<path d="M2167 2371 c-24 -41 -71 -171 -62 -171 14 0 105 166 105 191 0 20
-27 7 -43 -20z"/>
<path d="M2166 2158 c-19 -24 -33 -45 -30 -47 5 -6 84 70 84 81 0 19 -21 5
-54 -34z"/>
<path d="M2362 2169 c-7 -11 -18 -32 -23 -47 l-10 -27 30 29 c17 17 31 38 31
48 0 24 -12 23 -28 -3z"/>
<path d="M1644 2115 c-14 -30 -24 -65 -22 -77 3 -20 8 -16 41 29 32 44 36 55
27 77 -5 14 -12 26 -15 26 -3 0 -17 -25 -31 -55z"/>
</g>
</svg>
