<svg id="visual" viewBox="0 0 900 600" width="900" height="600" xmlns="http://www.w3.org/2000/svg" xmlns:xlink="http://www.w3.org/1999/xlink" version="1.1"><path d="M0 103L82 235L164 181L245 121L327 85L409 181L491 133L573 181L655 295L736 187L818 157L900 169L900 0L818 0L736 0L655 0L573 0L491 0L409 0L327 0L245 0L164 0L82 0L0 0Z" fill="#ffffff"></path><path d="M0 253L82 319L164 271L245 247L327 229L409 307L491 235L573 319L655 355L736 295L818 307L900 277L900 167L818 155L736 185L655 293L573 179L491 131L409 179L327 83L245 119L164 179L82 233L0 101Z" fill="#d9d9d9"></path><path d="M0 439L82 439L164 391L245 433L327 427L409 493L491 415L573 493L655 457L736 409L818 469L900 511L900 275L818 305L736 293L655 353L573 317L491 233L409 305L327 227L245 245L164 269L82 317L0 251Z" fill="#b4b4b4"></path><path d="M0 535L82 565L164 505L245 511L327 499L409 541L491 511L573 559L655 499L736 523L818 553L900 565L900 509L818 467L736 407L655 455L573 491L491 413L409 491L327 425L245 431L164 389L82 437L0 437Z" fill="#909090"></path><path d="M0 601L82 601L164 601L245 601L327 601L409 601L491 601L573 601L655 601L736 601L818 601L900 601L900 563L818 551L736 521L655 497L573 557L491 509L409 539L327 497L245 509L164 503L82 563L0 533Z" fill="#6e6e6e"></path></svg>