<svg id="visual" viewBox="0 0 900 600" width="900" height="600" xmlns="http://www.w3.org/2000/svg" xmlns:xlink="http://www.w3.org/1999/xlink" version="1.1"><path d="M0 151L82 205L164 157L245 145L327 127L409 223L491 187L573 139L655 121L736 169L818 235L900 169L900 0L818 0L736 0L655 0L573 0L491 0L409 0L327 0L245 0L164 0L82 0L0 0Z" fill="#fcaf3c"></path><path d="M0 223L82 253L164 241L245 259L327 241L409 319L491 307L573 217L655 229L736 253L818 307L900 253L900 167L818 233L736 167L655 119L573 137L491 185L409 221L327 125L245 143L164 155L82 203L0 149Z" fill="#eb9739"></path><path d="M0 307L82 343L164 337L245 337L327 295L409 355L491 343L573 319L655 271L736 343L818 409L900 289L900 251L818 305L736 251L655 227L573 215L491 305L409 317L327 239L245 257L164 239L82 251L0 221Z" fill="#d88037"></path><path d="M0 457L82 433L164 487L245 427L327 421L409 481L491 427L573 439L655 343L736 451L818 475L900 403L900 287L818 407L736 341L655 269L573 317L491 341L409 353L327 293L245 335L164 335L82 341L0 305Z" fill="#c46b34"></path><path d="M0 601L82 601L164 601L245 601L327 601L409 601L491 601L573 601L655 601L736 601L818 601L900 601L900 401L818 473L736 449L655 341L573 437L491 425L409 479L327 419L245 425L164 485L82 431L0 455Z" fill="#ae5731"></path></svg>