<svg id="visual" viewBox="0 0 900 600" width="900" height="600" xmlns="http://www.w3.org/2000/svg" xmlns:xlink="http://www.w3.org/1999/xlink" version="1.1"><rect x="0" y="0" width="900" height="600" fill="#ffffff"></rect><path d="M0 390L21.5 397.3C43 404.7 86 419.3 128.8 436.8C171.7 454.3 214.3 474.7 257.2 480.8C300 487 343 479 385.8 461.5C428.7 444 471.3 417 514.2 400.8C557 384.7 600 379.3 642.8 386.2C685.7 393 728.3 412 771.2 423.8C814 435.7 857 440.3 878.5 442.7L900 445L900 601L878.5 601C857 601 814 601 771.2 601C728.3 601 685.7 601 642.8 601C600 601 557 601 514.2 601C471.3 601 428.7 601 385.8 601C343 601 300 601 257.2 601C214.3 601 171.7 601 128.8 601C86 601 43 601 21.5 601L0 601Z" fill="#bababa" stroke-linecap="round" stroke-linejoin="miter"></path></svg>