<svg id="visual" viewBox="0 0 900 300" width="900" height="300" xmlns="http://www.w3.org/2000/svg" xmlns:xlink="http://www.w3.org/1999/xlink" version="1.1"><rect x="0" y="0" width="900" height="300" fill="#ffffff"></rect><path d="M0 198L21.5 196.8C43 195.7 86 193.3 128.8 203.8C171.7 214.3 214.3 237.7 257.2 245.7C300 253.7 343 246.3 385.8 235C428.7 223.7 471.3 208.3 514.2 211.3C557 214.3 600 235.7 642.8 236.8C685.7 238 728.3 219 771.2 209.5C814 200 857 200 878.5 200L900 200L900 301L878.5 301C857 301 814 301 771.2 301C728.3 301 685.7 301 642.8 301C600 301 557 301 514.2 301C471.3 301 428.7 301 385.8 301C343 301 300 301 257.2 301C214.3 301 171.7 301 128.8 301C86 301 43 301 21.5 301L0 301Z" fill="#b0b0b0" stroke-linecap="round" stroke-linejoin="miter"></path></svg>